<svg width="20" height="20" viewBox="0 0 20 20" fill="white" xmlns="http://www.w3.org/2000/svg">
<path d="M1.66064 2L17.1436 17.483" stroke="white" stroke-width="1.5" stroke-linecap="round" stroke-linejoin="round"/>
<path fill-rule="evenodd" clip-rule="evenodd" d="M3.49336 3.07129H2.6674C1.19424 3.07129 0 4.26552 0 5.73869V14.367C0 15.8402 1.19424 17.0344 2.6674 17.0344H11.2957C12.7416 17.0344 13.9188 15.8839 13.9619 14.4485L15.3248 14.9028L12.4631 12.041V13.391C12.4628 13.4026 12.4628 13.4142 12.4631 13.4258V14.367C12.4631 15.0117 11.9404 15.5344 11.2957 15.5344H2.6674C2.02266 15.5344 1.5 15.0117 1.5 14.367V5.73869C1.5 5.09395 2.02266 4.57129 2.6674 4.57129H4.99336L3.49336 3.07129ZM12.4631 9.91971V6.7147C12.4628 6.70306 12.4628 6.69145 12.4631 6.67987V5.73869C12.4631 5.09395 11.9404 4.57129 11.2957 4.57129H7.11468L5.61468 3.07129H11.2957C12.7416 3.07129 13.9188 4.22175 13.9619 5.65723L18.7281 4.06848C18.9568 3.99224 19.2083 4.03059 19.4038 4.17156C19.5994 4.31252 19.7153 4.53891 19.7153 4.77999V15.3257C19.7153 15.5668 19.5994 15.7932 19.4038 15.9341C19.2083 16.0751 18.9568 16.1134 18.7281 16.0372L18.5068 15.9634L16.1351 13.5917L18.2153 14.2851V5.82056L13.9631 7.23796V11.4197L12.4631 9.91971Z" fill="white"/>
</svg>
