<?xml version="1.0" standalone="no"?>
<!DOCTYPE svg PUBLIC "-//W3C//DTD SVG 20010904//EN"
 "http://www.w3.org/TR/2001/REC-SVG-20010904/DTD/svg10.dtd">
<svg version="1.0" xmlns="http://www.w3.org/2000/svg"
 width="700.000000pt" height="700.000000pt" viewBox="0 0 700.000000 700.000000"
 preserveAspectRatio="xMidYMid meet">
<metadata>
Created by potrace 1.14, written by Peter Selinger 2001-2017
</metadata>
<g transform="translate(0.000000,700.000000) scale(0.100000,-0.100000)"
fill="#000000" stroke="none">
<path d="M3310 6994 c-14 -2 -59 -9 -100 -15 -713 -102 -1326 -620 -1555
-1313 -38 -115 -71 -261 -80 -356 -4 -36 -9 -76 -11 -90 -6 -35 -5 -295 1
-350 17 -152 56 -326 101 -460 32 -92 163 -360 180 -367 7 -2 47 21 89 53 325
239 787 429 1170 480 28 3 52 8 55 9 12 7 224 19 345 19 525 0 1029 -152 1465
-442 178 -119 276 -199 420 -344 649 -651 913 -1582 705 -2488 -13 -58 -33
-134 -45 -169 -11 -35 -20 -68 -20 -74 0 -12 28 16 122 124 322 370 562 807
704 1281 37 124 87 336 99 421 3 27 8 57 10 67 2 10 6 46 10 79 3 33 8 70 11
83 10 41 13 560 4 656 -13 133 -19 190 -30 247 -5 28 -12 66 -15 85 -42 274
-165 639 -311 932 -496 990 -1421 1685 -2504 1882 -74 13 -166 28 -205 31 -38
4 -79 10 -90 12 -25 6 -491 12 -525 7z"/>
<path d="M930 5882 c-332 -356 -605 -819 -759 -1292 -57 -176 -115 -418 -135
-570 -2 -19 -10 -80 -18 -135 -14 -112 -18 -606 -5 -720 34 -301 85 -532 172
-792 219 -649 635 -1230 1180 -1647 55 -42 105 -81 112 -86 16 -13 183 -122
208 -136 11 -6 49 -28 85 -49 388 -222 830 -369 1290 -429 212 -28 607 -29
760 -2 818 143 1452 773 1595 1585 32 180 37 468 11 608 -2 10 -7 38 -11 63
-23 152 -103 389 -184 547 -77 151 -69 144 -132 99 -633 -453 -1332 -618
-2068 -490 -711 124 -1356 550 -1757 1159 -373 567 -514 1253 -398 1929 16 94
62 282 87 354 8 23 12 42 8 42 -3 -1 -22 -18 -41 -38z"/>
</g>
</svg>
