<svg width="50" height="50" viewBox="0 0 50 50" fill="none" xmlns="http://www.w3.org/2000/svg">
<g filter="url(#filter0_b_7652_3956)">
<rect width="50" height="50" rx="25" fill="#1C293C" fill-opacity="0.5"/>
<path d="M36.292 47.3299C36.2327 47.3581 36.1733 47.3893 36.1139 47.4143L34.9794 46.1918C35.0231 46.1543 35.0669 46.1137 35.1106 46.073L36.292 47.3299Z" fill="white"/>
<path d="M39.4174 45.4446C39.3362 45.5009 39.2549 45.5603 39.1736 45.6134L37.0515 43.8969C37.1015 43.8313 37.1484 43.7625 37.1953 43.6937L39.4174 45.4446Z" fill="white"/>
<path d="M42.3553 43.0121C42.2615 43.1028 42.1646 43.1935 42.0678 43.2873L38.5986 41.2425C38.6455 41.1456 38.6861 41.0487 38.7298 40.9486L42.3553 43.0121Z" fill="white"/>
<path d="M44.9963 40.0263C44.8931 40.1638 44.79 40.2983 44.6837 40.4327L39.5643 38.3504C39.5924 38.2222 39.6206 38.0972 39.6456 37.969L44.9963 40.0263Z" fill="white"/>
<path d="M47.1997 36.5276C47.1028 36.7152 47.0028 36.8997 46.8996 37.081L39.9175 35.3708C39.9206 35.2801 39.9206 35.1895 39.9206 35.0957V34.9143L47.1997 36.5276Z" fill="white"/>
<path d="M48.8374 32.5725C48.7623 32.8133 48.6842 33.0509 48.5998 33.2854L39.6831 32.4381C39.655 32.2693 39.6206 32.1004 39.5831 31.9316L48.8374 32.5725Z" fill="white"/>
<path d="M49.7906 28.2704C49.7531 28.5612 49.7125 28.8519 49.6625 29.1396L38.908 29.6773C38.8392 29.5023 38.7673 29.3272 38.6892 29.1521L49.7906 28.2704Z" fill="white"/>
<path d="M50 24.7593L37.6641 27.198C37.5578 27.026 37.4453 26.8541 37.3297 26.6883L49.9719 23.7525C49.9875 24.087 50 24.4216 50 24.7593Z" fill="white"/>
<path d="M49.5562 20.2851L36.0639 25.0813C36.042 25.0563 36.0201 25.0344 35.9982 25.0094C35.8764 24.8749 35.7513 24.7436 35.6201 24.6154L49.3155 19.1752C49.4062 19.541 49.4874 19.9131 49.5562 20.2851Z" fill="white"/>
<path d="M48.2873 15.8892L34.2199 23.3617C34.0449 23.221 33.8699 23.0897 33.6886 22.9615L47.7935 14.7199C47.9685 15.1044 48.1341 15.4952 48.2873 15.8892Z" fill="white"/>
<path d="M46.2058 11.7528L32.2353 22.0391C32.0353 21.9266 31.8321 21.8203 31.6258 21.7202L45.4369 10.5991C45.7026 10.9774 45.9589 11.3588 46.2058 11.7528Z" fill="white"/>
<path d="M43.3867 8.06341L30.1788 21.0918C29.96 21.0105 29.7412 20.9355 29.5162 20.8667L42.3334 6.98787C42.696 7.33492 43.0491 7.69135 43.3867 8.06341Z" fill="white"/>
<path d="M39.9175 4.93684L28.1535 20.504C27.9285 20.454 27.7035 20.4102 27.4722 20.3727L38.5798 4.00825C39.0361 4.30215 39.4831 4.61168 39.9175 4.93684Z" fill="white"/>
<path d="M35.917 2.50438L26.2283 20.2195C26.0033 20.2007 25.7751 20.1882 25.5438 20.182L34.3324 1.80403C34.87 2.01663 35.3982 2.25113 35.917 2.50438Z" fill="white"/>
<path d="M31.5571 0.872311L24.4218 20.182C24.1936 20.1882 23.9655 20.2039 23.7405 20.2226L29.7756 0.459605C30.3788 0.575288 30.9726 0.712856 31.5571 0.872311Z" fill="white"/>
<path d="M27.019 0.0844172L22.7372 20.3414C22.5122 20.3727 22.2903 20.4133 22.0715 20.4571L25.1094 0C25.2 0 25.2938 0 25.3844 0C25.5094 0.00312656 25.6376 0.00625313 25.7626 0.0125063C26.1845 0.0250125 26.6033 0.0468984 27.019 0.0812906V0.0844172Z" fill="white"/>
<path d="M22.4809 0.20948L21.1839 20.6635C20.9651 20.7197 20.7495 20.7823 20.5338 20.8511L20.5182 0.681591C21.1558 0.481491 21.809 0.322036 22.4809 0.20948Z" fill="white"/>
<path d="M19.7587 21.1168C19.5493 21.195 19.343 21.2794 19.1368 21.3669L16.3395 2.77014C16.9209 2.3543 17.5303 1.97911 18.1679 1.65083L19.7587 21.1168Z" fill="white"/>
<path d="M18.4648 21.6765C18.2648 21.7703 18.0679 21.8734 17.8741 21.9766L12.9797 6.08117C13.4298 5.46836 13.9267 4.88995 14.4674 4.35218L18.4648 21.6765Z" fill="white"/>
<path d="M17.2959 22.3143C17.1053 22.4268 16.9177 22.5457 16.7333 22.6707L10.7951 10.3458C11.0451 9.56728 11.3577 8.81691 11.7296 8.0978L17.2959 22.3143Z" fill="white"/>
<path d="M16.2302 23.024C16.0458 23.1553 15.8645 23.2929 15.6863 23.4367L10.0825 15.2232C10.0794 15.1232 10.0794 15.0231 10.0794 14.9231C10.0794 14.1321 10.1419 13.3536 10.2607 12.5969L16.2302 23.024Z" fill="white"/>
<path d="M15.2425 23.8088C15.0581 23.9651 14.88 24.1277 14.705 24.2965L11.1295 20.4352V20.429C10.7607 19.5035 10.4826 18.5311 10.3044 17.5244L15.2425 23.8088Z" fill="white"/>
<path d="M15.0206 3.80815C14.9769 3.84567 14.9331 3.88632 14.8925 3.92384L13.7111 2.67009C13.7705 2.63882 13.8299 2.61068 13.8892 2.58254L15.0206 3.80815Z" fill="white"/>
<path d="M12.9485 6.10305C12.8985 6.16871 12.8516 6.23437 12.8047 6.30315L10.5857 4.5554C10.667 4.496 10.7451 4.43972 10.8264 4.38657L12.9485 6.10305Z" fill="white"/>
<path d="M11.4014 8.7575C11.3545 8.85443 11.3139 8.95135 11.2702 9.0514L7.64471 6.98787C7.73847 6.89407 7.83848 6.8034 7.93537 6.71273L11.4014 8.7575Z" fill="white"/>
<path d="M10.4357 11.6464C10.4076 11.7746 10.3825 11.8997 10.3575 12.0279L5.00688 9.97061C5.10689 9.83617 5.21003 9.70173 5.31629 9.56728L10.4357 11.6464Z" fill="white"/>
<path d="M10.0825 14.6292C10.0794 14.7199 10.0794 14.8105 10.0794 14.9043V15.0857L2.80348 13.4724C2.89724 13.2848 2.99725 13.1003 3.10039 12.919L10.0825 14.6292Z" fill="white"/>
<path d="M10.4169 18.0684L1.16265 17.4275C1.23765 17.1867 1.31579 16.9491 1.40018 16.7115L10.3169 17.5619C10.345 17.7307 10.3794 17.8996 10.4169 18.0684Z" fill="white"/>
<path d="M11.3108 20.8479L0.209401 21.7296C0.246906 21.4388 0.287536 21.1481 0.337542 20.8604L11.092 20.3227C11.1608 20.4977 11.2327 20.6728 11.3108 20.8479Z" fill="white"/>
<path d="M12.6703 23.3117L0.0281285 26.2475C0.0125016 25.9161 0 25.5815 0 25.2439L12.3359 22.802C12.4422 22.974 12.5547 23.1459 12.6703 23.3117Z" fill="white"/>
<path d="M14.3799 25.3846L0.684461 30.8248C0.593824 30.459 0.512564 30.0869 0.443805 29.7149L13.9361 24.9187C13.958 24.9437 13.9799 24.9656 14.0017 24.9906C14.1236 25.1251 14.2487 25.2564 14.3799 25.3846Z" fill="white"/>
<path d="M16.3114 27.0385L2.20653 35.277C2.0315 34.8956 1.86586 34.5079 1.71271 34.1139L15.7801 26.6383C15.9551 26.779 16.1301 26.9103 16.3114 27.0385Z" fill="white"/>
<path d="M18.3773 28.2829L4.56307 39.401C4.29741 39.0226 4.04113 38.6412 3.79422 38.2472L17.7647 27.9609C17.9647 28.0734 18.171 28.1797 18.3773 28.2829Z" fill="white"/>
<path d="M20.4869 29.1333L7.66658 43.0153C7.30404 42.6651 6.95087 42.3087 6.61333 41.9366L19.8244 28.9082C20.0431 28.9895 20.2619 29.0645 20.4869 29.1333Z" fill="white"/>
<path d="M22.5278 29.6273L11.4202 45.9917C10.9639 45.6979 10.5169 45.3883 10.0825 45.0632L21.8496 29.496C22.0746 29.546 22.2997 29.5898 22.5278 29.6273Z" fill="white"/>
<path d="M24.4593 29.818L15.6676 48.196C15.13 47.9834 14.6018 47.7489 14.083 47.4956L23.7748 29.7805C23.9999 29.7993 24.228 29.8118 24.4593 29.818Z" fill="white"/>
<path d="M26.2595 29.7774L20.2275 49.5404C19.6243 49.4278 19.0305 49.2903 18.4429 49.1277L25.5813 29.818C25.8095 29.8118 26.0345 29.7961 26.2595 29.7774Z" fill="white"/>
<path d="M27.9316 29.5429L24.8937 50C24.8 50 24.7093 50 24.6156 50C24.4906 49.9969 24.3624 49.9938 24.2374 49.9875C23.8155 49.975 23.3967 49.9531 22.981 49.9187L27.2628 29.6617C27.4878 29.6304 27.7097 29.5898 27.9316 29.546V29.5429Z" fill="white"/>
<path d="M29.4849 49.3184C28.8474 49.5185 28.1941 49.678 27.5222 49.7905L28.8192 29.3365C29.038 29.2803 29.2537 29.2177 29.4662 29.149L29.4849 49.3184Z" fill="white"/>
<path d="M33.6636 47.2299C33.0823 47.6457 32.4728 48.0178 31.8352 48.3492L30.2444 28.8832C30.4538 28.805 30.6601 28.7206 30.8632 28.6331L33.6636 47.2299Z" fill="white"/>
<path d="M37.0234 43.9157C36.5733 44.5285 36.0764 45.1069 35.5357 45.6447L31.5352 28.3235C31.7352 28.2297 31.9321 28.1266 32.129 28.0203L37.0234 43.9157Z" fill="white"/>
<path d="M39.2049 39.6542C38.9549 40.4327 38.6423 41.1831 38.2704 41.9022L32.7041 27.6857C32.8947 27.5732 33.0823 27.4544 33.2667 27.3293L39.2049 39.6542Z" fill="white"/>
<path d="M39.9206 35.0769C39.9206 35.8679 39.8581 36.6433 39.7393 37.4L33.7698 26.976C33.9542 26.8447 34.1355 26.7071 34.3137 26.5633L39.9175 34.7705C39.9206 34.8706 39.9206 34.9737 39.9206 35.0769Z" fill="white"/>
<path d="M39.6925 32.4694L34.7606 26.1881C34.945 26.0349 35.1231 25.8723 35.295 25.7035L38.8705 29.5617C39.2362 30.4902 39.5143 31.4626 39.6925 32.4694Z" fill="white"/>
</g>
<defs>
<filter id="filter0_b_7652_3956" x="-30" y="-30" width="110" height="110" filterUnits="userSpaceOnUse" color-interpolation-filters="sRGB">
<feFlood flood-opacity="0" result="BackgroundImageFix"/>
<feGaussianBlur in="BackgroundImageFix" stdDeviation="15"/>
<feComposite in2="SourceAlpha" operator="in" result="effect1_backgroundBlur_7652_3956"/>
<feBlend mode="normal" in="SourceGraphic" in2="effect1_backgroundBlur_7652_3956" result="shape"/>
</filter>
</defs>
</svg>
