<svg width="40" height="40" viewBox="0 0 40 40" fill="none" xmlns="http://www.w3.org/2000/svg">
<rect width="40" height="40" rx="20" fill="white" fill-opacity="0.1"/>
<path d="M11.6605 12L27.1435 27.483" stroke="white" stroke-width="1.5" stroke-linecap="round" stroke-linejoin="round"/>
<path fill-rule="evenodd" clip-rule="evenodd" d="M13.4934 13.0714H12.6674C11.1942 13.0714 10 14.2656 10 15.7388V24.3671C10 25.8403 11.1942 27.0345 12.6674 27.0345H21.2957C22.7416 27.0345 23.9188 25.884 23.9619 24.4486L25.3248 24.9029L22.4631 22.0412V23.3911C22.4628 23.4027 22.4628 23.4144 22.4631 23.4259V24.3671C22.4631 25.0118 21.9404 25.5345 21.2957 25.5345H12.6674C12.0227 25.5345 11.5 25.0118 11.5 24.3671V15.7388C11.5 15.0941 12.0227 14.5714 12.6674 14.5714H14.9934L13.4934 13.0714ZM22.4631 19.9198V16.7148C22.4628 16.7032 22.4628 16.6916 22.4631 16.68V15.7388C22.4631 15.0941 21.9404 14.5714 21.2957 14.5714H17.1147L15.6147 13.0714H21.2957C22.7416 13.0714 23.9188 14.2219 23.9619 15.6573L28.7281 14.0686C28.9568 13.9924 29.2083 14.0307 29.4038 14.1717C29.5994 14.3126 29.7153 14.539 29.7153 14.7801V25.3258C29.7153 25.5669 29.5994 25.7933 29.4038 25.9342C29.2083 26.0752 28.9568 26.1136 28.7281 26.0373L28.5068 25.9636L26.1351 23.5918L28.2153 24.2852V15.8207L23.9631 17.2381V21.4198L22.4631 19.9198Z" fill="white"/>
</svg>
